<?xml version="1.0" encoding="UTF-8"?>
<svg id="Laag_2" data-name="Laag 2" xmlns="http://www.w3.org/2000/svg" viewBox="0 0 64.05 64.05">
  <defs>
    <style>
      .cls-1 {
        fill: #fff;
      }

      .cls-2 {
        fill: #d62e39;
        stroke: #69008b;
        stroke-miterlimit: 10;
        stroke-width: 4.05px;
      }
    </style>
  </defs>
  <g id="Laag_3" data-name="Laag 3">
    <g>
      <circle class="cls-2" cx="32.02" cy="32.02" r="30"/>
      <path class="cls-1" d="M20.61,48.69c-.72,0-1.34-.26-1.86-.77-.52-.52-.77-1.14-.77-1.86v-19.06c0-.72.26-1.35.77-1.86.52-.52,1.14-.77,1.86-.77h3.07v-4.22c0-2.31.81-4.28,2.44-5.9,1.63-1.63,3.6-2.44,5.91-2.44s4.28.81,5.9,2.44c1.63,1.63,2.44,3.59,2.44,5.9v4.22h3.07c.72,0,1.35.26,1.86.77.52.52.77,1.14.77,1.86v19.06c0,.72-.26,1.34-.77,1.86-.52.52-1.14.77-1.86.77h-22.84ZM20.61,46.06h22.84v-19.06h-22.84v19.06ZM32.03,39.91c.93,0,1.73-.32,2.39-.97.66-.65.99-1.42.99-2.33s-.33-1.68-1-2.39c-.66-.72-1.46-1.08-2.39-1.08s-1.73.36-2.39,1.08-.99,1.52-.99,2.42.33,1.66,1,2.31,1.46.97,2.39.97ZM26.31,24.36h11.42v-4.22c0-1.59-.55-2.93-1.66-4.04-1.11-1.11-2.46-1.67-4.04-1.67s-2.93.56-4.05,1.67c-1.11,1.11-1.67,2.46-1.67,4.04v4.22ZM20.61,46.06v-19.06,19.06Z"/>
    </g>
  </g>
</svg>