<?xml version="1.0" encoding="UTF-8"?>
<svg id="Laag_2" data-name="Laag 2" xmlns="http://www.w3.org/2000/svg" viewBox="0 0 75 75">
  <defs>
    <style>
      .cls-1 {
        fill: #fff;
      }

      .cls-2 {
        fill: #d62e39;
        stroke: #69008b;
        stroke-miterlimit: 10;
        stroke-width: 5px;
      }
    </style>
  </defs>
  <g id="Laag_3" data-name="Laag 3">
    <g>
      <circle class="cls-2" cx="37.5" cy="37.5" r="35"/>
      <path class="cls-1" d="M26.96,54.13l-1.39-5.15,5.27-5.15c3.55-3.47,6.1-6.41,7.66-8.81,1.55-2.4,2.33-4.53,2.33-6.39s-.43-3.11-1.3-4c-.87-.89-2.01-1.33-3.42-1.33-2.22,0-4.5.93-6.84,2.78l-3.15-4.84c1.45-1.21,3.05-2.15,4.78-2.82,1.73-.67,3.81-1,6.24-1,3.59,0,6.42.99,8.48,2.97,2.06,1.98,3.09,4.52,3.09,7.63,0,2.5-.9,5.14-2.69,7.9-1.8,2.77-4.37,5.7-7.72,8.81l-3.51,3.39h14.35v5.99h-22.16Z"/>
    </g>
  </g>
</svg>