<?xml version="1.0" encoding="UTF-8"?>
<svg id="Laag_2" data-name="Laag 2" xmlns="http://www.w3.org/2000/svg" viewBox="0 0 52.89 52.89">
  <defs>
    <style>
      .cls-1 {
        fill: #fff;
      }

      .cls-2 {
        fill: #d62e39;
        stroke: #69008b;
        stroke-miterlimit: 10;
        stroke-width: 2.89px;
      }
    </style>
  </defs>
  <g id="Laag_3" data-name="Laag 3">
    <g>
      <circle class="cls-2" cx="26.44" cy="26.44" r="25"/>
      <path class="cls-1" d="M26.28,44.01l-7.48-15.21c-1.9.33-3.6-.08-5.11-1.24s-2.25-2.77-2.25-4.84c0-1.24.38-2.45,1.14-3.64s1.87-1.98,3.33-2.4c.44-2.73,1.66-4.92,3.66-6.57s4.25-2.48,6.76-2.48,4.75.83,6.74,2.48,3.21,3.84,3.68,6.57c1.46.41,2.57,1.21,3.33,2.4s1.14,2.4,1.14,3.64c0,2.07-.78,3.68-2.34,4.84s-3.2,1.57-4.94,1.24l-7.65,15.21ZM17.47,26.44c.5,0,.96-.07,1.41-.21s.79-.33,1.03-.58l1.07-1.12.95.83c.69.47,1.44.76,2.25.89s1.56.19,2.25.19,1.39-.06,2.11-.19,1.42-.42,2.11-.89l.99-.83,1.03,1.12c.25.25.6.44,1.05.58s.92.21,1.38.21c.94,0,1.77-.38,2.5-1.14s1.1-1.62,1.1-2.58c0-.85-.26-1.6-.79-2.23s-1.27-1.03-2.23-1.2l-1.45-.21-.08-1.61c-.3-2.18-1.15-3.95-2.54-5.31s-3.16-2.05-5.31-2.05-3.93.68-5.33,2.05-2.25,3.13-2.52,5.31l-.12,1.61-1.45.33c-.83.22-1.53.61-2.11,1.18s-.87,1.27-.87,2.13c0,.96.37,1.83,1.1,2.58s1.55,1.14,2.46,1.14ZM26.28,38.39l5.29-10.42-.25-.25c-.77.41-1.61.72-2.5.91s-1.69.29-2.38.29c-.88,0-1.78-.1-2.69-.29s-1.71-.5-2.4-.91l-.25.21,5.17,10.46Z"/>
    </g>
  </g>
</svg>