<?xml version="1.0" encoding="UTF-8"?>
<svg id="Laag_2" data-name="Laag 2" xmlns="http://www.w3.org/2000/svg" viewBox="0 0 147.25 39.22">
  <defs>
    <style>
      .cls-1 {
        fill: #fff;
      }

      .cls-2 {
        fill: #d62e39;
        stroke: #69008b;
        stroke-miterlimit: 10;
        stroke-width: 4px;
      }
    </style>
  </defs>
  <g id="Laag_3" data-name="Laag 3">
    <g>
      <rect class="cls-2" x="2" y="2" width="143.25" height="35.22" rx="13.68" ry="13.68"/>
      <g>
        <path class="cls-1" d="M10.67,25.16v-11.56h7.52v1.95h-5.01v2.64h4.53v1.93h-4.53v3.1h5.07v1.95h-7.58Z"/>
        <path class="cls-1" d="M20.18,25.16v-11.56h2.29l3.21,4.74c.39.58.77,1.17,1.14,1.8.37.62.65,1.19.84,1.69h.04c-.05-.65-.08-1.31-.09-1.97s-.02-1.33-.02-1.99v-4.26h2.35v11.56h-2.29l-3.32-4.77c-.38-.55-.73-1.12-1.05-1.71-.32-.59-.6-1.2-.84-1.84h-.04c.06.7.1,1.38.1,2.04,0,.66,0,1.33,0,2.02v4.26h-2.33Z"/>
        <path class="cls-1" d="M34.61,25.16v-9.58h-3.21v-1.98h8.99v1.98h-3.27v9.58h-2.52Z"/>
        <path class="cls-1" d="M41.84,25.16v-11.56h4.39c.87,0,1.59.16,2.18.48.58.32,1.02.75,1.32,1.29.3.54.45,1.14.45,1.82,0,.62-.12,1.15-.36,1.59-.24.43-.53.79-.87,1.06-.34.28-.68.48-1.01.62l2.85,4.72h-2.88l-2.22-4.26h-1.34v4.26h-2.5ZM44.33,18.97h.97c.66,0,1.21-.14,1.63-.42.43-.28.64-.73.64-1.34,0-.54-.17-.96-.51-1.26-.34-.3-.84-.45-1.49-.45h-1.25v3.47Z"/>
        <path class="cls-1" d="M51.29,25.16l4.31-11.56h2.61l4.28,11.56h-2.66l-.9-2.66h-4.11l-.9,2.66h-2.62ZM55.38,20.65h2.94l-.53-1.54c-.16-.46-.31-.95-.47-1.47-.15-.51-.3-1-.43-1.45h-.04c-.12.45-.27.93-.43,1.42-.17.5-.33.99-.5,1.5l-.53,1.54Z"/>
        <path class="cls-1" d="M64.03,25.16v-11.56h2.29l3.21,4.74c.39.58.77,1.17,1.14,1.8.37.62.65,1.19.84,1.69h.04c-.05-.65-.08-1.31-.09-1.97s-.02-1.33-.02-1.99v-4.26h2.35v11.56h-2.29l-3.32-4.77c-.38-.55-.73-1.12-1.05-1.71-.32-.59-.6-1.2-.84-1.84h-.04c.06.7.1,1.38.1,2.04,0,.66,0,1.33,0,2.02v4.26h-2.33Z"/>
        <path class="cls-1" d="M81.78,25.34c-1.16,0-2.19-.24-3.09-.72-.9-.48-1.61-1.17-2.12-2.07-.51-.89-.77-1.96-.77-3.19s.25-2.28.74-3.17c.5-.89,1.2-1.58,2.1-2.07.91-.49,1.97-.73,3.19-.73.8,0,1.45.07,1.96.22.51.15.92.31,1.24.48l-.57,1.85c-.32-.17-.67-.32-1.06-.43-.39-.12-.83-.17-1.3-.17-.66,0-1.27.13-1.82.4s-.99.7-1.32,1.28c-.33.59-.5,1.37-.5,2.33s.16,1.7.48,2.29c.32.6.75,1.04,1.29,1.33.54.29,1.15.43,1.83.43.56,0,1.04-.05,1.42-.15.39-.1.73-.23,1.02-.39l.5,1.83c-.29.16-.71.31-1.24.44-.53.13-1.19.2-1.97.2Z"/>
        <path class="cls-1" d="M86.75,25.16v-11.56h7.53v1.95h-5.01v2.64h4.54v1.93h-4.54v3.1h5.07v1.95h-7.58Z"/>
        <path class="cls-1" d="M94.95,27.07l4.74-14.92h1.71l-4.74,14.92h-1.71Z"/>
        <path class="cls-1" d="M102.63,25.16v-11.56h7.52v1.95h-5.01v2.64h4.53v1.93h-4.53v3.1h5.07v1.95h-7.58Z"/>
        <path class="cls-1" d="M111.09,25.16l3.78-5.87-3.62-5.69h2.96l2.42,4.02,2.42-4.02h2.88l-3.72,5.69,3.91,5.87h-2.97l-2.66-4.22-2.51,4.22h-2.88Z"/>
        <path class="cls-1" d="M123.62,25.16v-11.56h2.51v11.56h-2.51Z"/>
        <path class="cls-1" d="M130.8,25.16v-9.58h-3.21v-1.98h8.99v1.98h-3.27v9.58h-2.51Z"/>
      </g>
    </g>
  </g>
</svg>