<?xml version="1.0" encoding="UTF-8"?>
<svg id="Laag_2" data-name="Laag 2" xmlns="http://www.w3.org/2000/svg" viewBox="0 0 52.89 52.89">
  <defs>
    <style>
      .cls-1 {
        fill: #fff;
      }

      .cls-2 {
        fill: #d62e39;
        stroke: #69008b;
        stroke-miterlimit: 10;
        stroke-width: 2.89px;
      }
    </style>
  </defs>
  <g id="Laag_3" data-name="Laag 3">
    <g>
      <circle class="cls-2" cx="26.44" cy="26.44" r="25"/>
      <g>
        <path class="cls-1" d="M14.05,34.05l-3.48-12.52h3.64l1.57,6.62.47,3.3h.1l.58-3.3,1.54-6.62h3.67l1.57,6.62.55,3.3h.1l.52-3.3,1.54-6.62h3.53l-3.43,12.52h-4.09l-1.62-6.76-.55-3.04-.55,3.04-1.62,6.76h-4.06Z"/>
        <path class="cls-1" d="M37.67,34.31c-1.26,0-2.39-.24-3.4-.73-1.01-.49-1.82-1.21-2.41-2.17s-.89-2.15-.89-3.56c0-1.31.28-2.46.85-3.44s1.36-1.76,2.38-2.31,2.19-.82,3.52-.82c.54,0,1.12.05,1.73.16.61.1,1.25.33,1.91.68l-.76,2.44c-.37-.23-.76-.41-1.19-.54-.43-.13-.86-.2-1.3-.2-1.07,0-1.93.33-2.6,1-.67.66-1.01,1.64-1.01,2.93,0,.99.18,1.79.55,2.37.37.58.83,1,1.4,1.26s1.15.38,1.74.38c.56,0,1.05-.07,1.48-.22.43-.15.77-.28,1.03-.41l.65,2.38c-.33.19-.83.38-1.49.55-.66.17-1.4.26-2.2.26Z"/>
      </g>
    </g>
  </g>
</svg>