<?xml version="1.0" encoding="UTF-8"?>
<svg id="Laag_2" data-name="Laag 2" xmlns="http://www.w3.org/2000/svg" viewBox="0 0 72.89 72.89">
  <defs>
    <style>
      .cls-1 {
        fill: #fff;
      }

      .cls-2 {
        fill: #d62e39;
        stroke: #69008b;
        stroke-miterlimit: 10;
        stroke-width: 2.89px;
      }
    </style>
  </defs>
  <g id="Laag_3" data-name="Laag 3">
    <g>
      <circle class="cls-2" cx="36.44" cy="36.44" r="35"/>
      <path class="cls-1" d="M34.97,55.33c-2.08,0-4.05-.22-5.91-.65s-3.49-1-4.87-1.69l1.82-5.85c1.26.56,2.48,1.02,3.67,1.36,1.19.35,2.55.52,4.06.52,2.17,0,3.91-.44,5.23-1.33,1.32-.89,1.98-2.2,1.98-3.93s-.61-3.02-1.82-4c-1.21-.97-3.03-1.46-5.46-1.46h-4.42v-6.11h3.19c2.3,0,4.09-.5,5.36-1.5,1.28-1,1.92-2.38,1.92-4.16,0-1.65-.54-2.89-1.63-3.74s-2.41-1.27-3.97-1.27c-2.17,0-4.31.69-6.43,2.08l-2.6-5.52c2.9-1.86,6.41-2.79,10.53-2.79,2.51,0,4.7.45,6.56,1.36s3.32,2.13,4.35,3.67c1.04,1.54,1.56,3.26,1.56,5.17,0,2.43-.63,4.38-1.89,5.85s-2.77,2.58-4.55,3.31c2.3.52,4.17,1.61,5.62,3.28,1.45,1.67,2.18,3.65,2.18,5.95,0,2.64-.65,4.81-1.95,6.5-1.3,1.69-3.04,2.94-5.23,3.74s-4.62,1.2-7.31,1.2Z"/>
    </g>
  </g>
</svg>