<?xml version="1.0" encoding="UTF-8"?>
<svg id="Laag_2" data-name="Laag 2" xmlns="http://www.w3.org/2000/svg" viewBox="0 0 52.89 52.89">
  <defs>
    <style>
      .cls-1 {
        fill: #fff;
      }

      .cls-2 {
        fill: #d62e39;
        stroke: #69008b;
        stroke-miterlimit: 10;
        stroke-width: 2.89px;
      }
    </style>
  </defs>
  <g id="Laag_3" data-name="Laag 3">
    <g>
      <circle class="cls-2" cx="26.44" cy="26.44" r="25"/>
      <path class="cls-1" d="M17.6,23.02l-2.42,1.34c-.36.2-.74.26-1.13.17s-.67-.3-.83-.63l-2.65-4.57c-.2-.36-.26-.67-.17-.92.09-.26.3-.49.63-.69l8.76-5.11h2.46c.28,0,.51.08.67.25s.25.39.25.67v.58c0,.97.31,1.77.92,2.38s1.41.92,2.38.92,1.76-.31,2.36-.92.9-1.41.9-2.38v-.58c0-.28.08-.51.25-.67s.39-.25.67-.25h2.46l8.76,5.11c.33.2.54.44.61.69s.03.56-.15.92l-2.69,4.57c-.15.33-.47.55-.96.65s-.87.06-1.15-.12l-2.38-1.5v15.83c0,.41-.15.76-.46,1.06-.31.29-.67.44-1.08.44h-14.52c-.41,0-.76-.15-1.06-.44-.29-.29-.44-.65-.44-1.06v-15.75ZM19.9,19.1v18.86h12.95v-18.86l5.3,2.96,1.73-3-7.18-4.11h-.69c-.2,1.38-.81,2.52-1.82,3.42s-2.25,1.34-3.71,1.34-2.7-.45-3.73-1.34-1.64-2.04-1.84-3.42h-.69l-7.18,4.11,1.73,3,5.15-2.96Z"/>
    </g>
  </g>
</svg>