<?xml version="1.0" encoding="UTF-8"?>
<svg id="Laag_2" data-name="Laag 2" xmlns="http://www.w3.org/2000/svg" viewBox="0 0 52.89 52.89">
  <defs>
    <style>
      .cls-1 {
        fill: #157a21;
        stroke: #69008b;
        stroke-miterlimit: 10;
        stroke-width: 2.89px;
      }

      .cls-2 {
        fill: #fff;
      }
    </style>
  </defs>
  <g id="Laag_3" data-name="Laag 3">
    <g>
      <circle class="cls-1" cx="26.44" cy="26.44" r="25"/>
      <path class="cls-2" d="M24.69,31.74h3.5v-4.38h4.38v-3.5h-4.38v-4.38h-3.5v4.38h-4.38v3.5h4.38v4.38ZM26.44,43.95c-4.09-1.02-7.44-3.39-10.07-7.11-2.63-3.72-3.94-7.8-3.94-12.24v-10.42l14.01-5.25,14.01,5.25v10.42c0,4.44-1.31,8.51-3.94,12.24-2.63,3.72-5.98,6.09-10.07,7.11ZM26.44,41.24c3.36-1.11,6.09-3.2,8.21-6.28,2.12-3.08,3.17-6.53,3.17-10.35v-8.58l-11.38-4.29-11.38,4.29v8.58c0,3.82,1.06,7.27,3.17,10.35,2.12,3.08,4.85,5.17,8.21,6.28Z"/>
    </g>
  </g>
</svg>